<svg width="61" height="56" viewBox="0 0 61 56" fill="none" xmlns="http://www.w3.org/2000/svg">
<path fill-rule="evenodd" clip-rule="evenodd" d="M11.5064 6.01499C10.4659 6.13503 10.0758 6.20111 9.37289 6.37654C4.35835 7.62793 0.642196 11.811 0.0535318 16.867C0.00602956 17.2751 -0.00871688 21.6478 0.00477452 31.3573C0.023035 44.5912 0.0296239 45.2913 0.140065 45.8476C1.21461 51.2587 5.44978 55.2069 10.9292 55.9056C11.5747 55.9879 13.3803 56 24.9978 56C36.6153 56 38.4209 55.9879 39.0664 55.9056C41.979 55.5342 44.5407 54.2663 46.5618 52.1957C48.2076 50.5096 49.2461 48.5666 49.7976 46.1417L49.9694 45.3861L49.99 31.3573C50.0127 15.8734 50.0321 16.7285 49.6226 15.1609C48.5211 10.945 45.0631 7.52807 40.7665 6.41013C39.1059 5.97807 40.3442 6.01068 25.2802 6.00151C17.8081 5.99696 11.6099 6.00305 11.5064 6.01499ZM37.8265 10.0601C38.7713 10.2882 39.4783 10.5341 40.2516 10.9034C43.4455 12.429 45.6836 15.5293 46.1115 19.0205C46.1636 19.4457 46.177 22.809 46.1607 31.3573C46.1404 42.0076 46.1285 43.1556 46.0342 43.6017C45.6893 45.2337 45.0335 46.7035 44.092 47.9548C43.5746 48.6423 42.4464 49.7257 41.7206 50.2318C40.6133 51.0041 39.0907 51.6603 37.7531 51.9417C36.6303 52.178 35.7582 52.1926 24.2762 52.1675C12.2803 52.1413 13.1151 52.1647 11.726 51.8164C8.02682 50.8887 4.94049 47.7936 4.10076 44.1692C3.81794 42.9483 3.81945 43.0203 3.81945 30.9811C3.81945 19.8501 3.82905 19.2269 4.01617 18.2514C4.73404 14.5081 7.618 11.3726 11.3395 10.2893C11.9412 10.1141 12.7479 9.9401 13.1693 9.89457C13.2901 9.88153 18.7259 9.87445 25.2488 9.87882L37.1087 9.88682L37.8265 10.0601ZM37.6746 14.2254C36.2233 14.4632 35.0202 15.5285 34.5992 16.9484C34.4747 17.3681 34.4588 18.357 34.5694 18.8052C34.7525 19.5478 35.2593 20.3273 35.8923 20.8398C37.0914 21.8107 38.8636 21.9343 40.2537 21.1442C40.9576 20.744 41.6546 19.8703 41.9478 19.0205C42.1317 18.4876 42.1138 17.3488 41.9121 16.7439C41.3425 15.036 39.4805 13.9294 37.6746 14.2254ZM23.5453 18.5298C21.2634 18.7655 18.8726 19.7479 16.9791 21.2279C14.4126 23.234 12.6527 26.3626 12.295 29.5551C11.5716 36.0111 15.8825 41.8958 22.3309 43.255C23.3345 43.4665 23.7838 43.5094 24.9978 43.5094C27.1772 43.5094 28.7804 43.1433 30.7001 42.2072C34.4068 40.3998 36.909 37.0598 37.6531 32.9263C37.7658 32.3004 37.7657 29.6746 37.6529 29.0499C36.6955 23.7445 32.7652 19.7479 27.4611 18.6862C26.4232 18.4784 24.7065 18.4098 23.5453 18.5298ZM25.7822 21.5474C27.1796 21.6737 28.3973 22.0401 29.5539 22.6823C31.9712 24.0243 33.627 26.2662 34.2654 29.0612C34.3945 29.6265 34.4099 29.8475 34.4056 31.0804L34.4008 32.4648L34.1727 33.3087C33.6526 35.2324 32.8402 36.6067 31.4525 37.9102C29.4634 39.7787 26.8704 40.6837 24.1921 40.4443C21.9226 40.2414 20.0598 39.3771 18.4045 37.7586C17 36.3853 16.088 34.7215 15.6997 32.8245C15.5292 31.991 15.5443 29.8486 15.7264 29.0499C16.2555 26.7289 17.5089 24.7686 19.3502 23.382C20.7194 22.351 22.3899 21.7094 24.1193 21.5503C24.932 21.4756 24.9864 21.4754 25.7822 21.5474Z" fill="#B68535"/>
<path d="M60.1294 6.56L57.4094 8.08V7.7L60.1294 9.22L59.5094 10.32L56.8694 8.78L57.0894 8.64L57.1094 11.62H55.9094L55.9294 8.64L56.1494 8.78L53.5094 10.32L52.8894 9.22L55.6294 7.7V8.08L52.8894 6.56L53.5094 5.44L56.1494 7L55.9294 7.14L55.9094 4.16H57.1094L57.0894 7.14L56.8694 7L59.5094 5.44L60.1294 6.56Z" fill="#B68535"/>
</svg>
