<svg width="50" height="35" viewBox="0 0 50 35" fill="none" xmlns="http://www.w3.org/2000/svg">
<path d="M2.90173 0.416599C1.87496 0.963474 0.959803 1.88222 0.424099 2.88847C0.022321 3.6541 0 4.37597 0 17.501C0 30.626 0.022321 31.3479 0.424099 32.1135C0.982124 33.1854 1.89729 34.0604 2.99102 34.5854C3.83921 34.9791 4.64277 35.001 25.0442 35.001C45.4009 35.001 46.2491 34.9791 47.0527 34.5854C48.1018 34.0604 49.0393 33.1416 49.575 32.1135C49.9767 31.3479 49.9991 30.626 49.9991 17.3697C49.9991 1.96972 50.0883 2.97597 48.5259 1.44472C46.9857 -0.0865258 48.5259 0.000974178 24.9326 0.000974178C4.64277 0.0228492 3.63832 0.0447242 2.90173 0.416599ZM35.044 12.251C29.7316 17.4135 25.2451 21.6572 25.0665 21.6572C24.8879 21.6572 20.4014 17.4354 15.1113 12.251L5.46865 2.84472H25.0665H44.6867L35.044 12.251ZM46.9634 30.801C46.2715 32.5947 46.3161 32.6385 38.9948 25.4635L32.3431 18.9447L39.776 11.6603L47.2089 4.37597L47.2759 17.1291C47.3205 28.3947 47.2982 29.9697 46.9634 30.801ZM16.7184 19.8197C11.9864 24.6104 4.39724 31.8291 4.08474 31.8291C3.16958 31.8291 3.12494 31.326 3.12494 17.676V4.59472L10.4239 11.7041L17.7229 18.8354L16.7184 19.8197ZM22.1648 23.1885C23.4147 24.4135 24.687 25.4416 24.9549 25.5291C25.4013 25.6385 25.8701 25.2885 27.8789 23.3197L30.245 21.001L36.0038 26.6447L41.7626 32.2666L33.3699 32.3322C28.7718 32.3541 21.2273 32.3541 16.6292 32.3322L8.23645 32.2666L13.9953 26.6447C17.1649 23.5385 19.7764 21.001 19.8211 21.001C19.8657 21.001 20.9148 21.9854 22.1648 23.1885Z" fill="#B68535"/>
</svg>
