<svg width="50" height="50" viewBox="0 0 50 50" fill="none" xmlns="http://www.w3.org/2000/svg">
<path fill-rule="evenodd" clip-rule="evenodd" d="M20.6934 0.300369C15.4559 1.43255 11.5747 3.50674 8.05011 7.05693C4.40241 10.7314 2.27789 14.6432 1.23022 19.6141C0.932775 21.0258 0.846692 22.065 0.843829 24.2819C0.838102 28.5558 1.49419 31.4343 3.32735 35.1788L4.29932 37.1637L2.14957 43.4517C0.967316 46.9099 0 49.8152 0 49.9079C0 50.1439 0.241068 50.0751 7.15277 47.8633C12.3736 46.1925 13.391 45.9182 13.7745 46.0772C14.0238 46.1804 15.0023 46.5905 15.9488 46.9885C27.2824 51.7538 40.473 47.3063 46.7494 36.603C51.5938 28.3421 50.9769 17.6047 45.2101 9.80255C41.8766 5.29288 37.0982 2.09365 31.4982 0.622093C29.5984 0.122841 29.1646 0.0764989 25.8607 0.0191055C22.8346 -0.0332972 22.0358 0.0101935 20.6934 0.300369ZM29.4401 4.31951C36.6603 5.82083 42.515 10.957 44.8802 17.8653C45.8497 20.697 46.1965 25.2007 45.6557 27.9358C44.2318 35.1357 39.2916 41.0551 32.6615 43.5055C30.0507 44.4705 28.4096 44.7519 25.4133 44.7487C21.4037 44.7445 18.5018 44.0069 15.3137 42.1819L14.0729 41.4716L10.2131 42.704C8.0902 43.3818 6.33131 43.8802 6.30447 43.8112C6.2778 43.7424 6.81542 42.0471 7.49961 40.0441L8.74325 36.4023L8.0111 35.2462C2.89533 27.1701 4.09297 16.7217 10.9129 9.92945C14.1101 6.74501 18.2636 4.69275 22.8183 4.04663C24.3477 3.82971 27.7604 3.97034 29.4401 4.31951ZM16.0175 12.7563C14.0185 13.9705 12.7913 16.9789 13.2258 19.5999C13.6033 21.8762 14.5856 23.783 17.2291 27.371C20.3022 31.5424 23.5556 33.9121 28.9397 35.9007C31.8341 36.9698 33.96 36.7832 36.149 35.2678C37.4554 34.3632 37.9984 33.333 38.017 31.7233L38.0305 30.5474L35.4174 29.1534C33.9803 28.3866 32.5664 27.712 32.2754 27.654C31.7874 27.5567 31.6444 27.6671 30.4296 29.0762C29.7053 29.9166 28.9613 30.6519 28.7761 30.7105C28.3664 30.8399 25.8933 29.6207 24.5899 28.6465C23.2709 27.661 22.0153 26.3996 21.0385 25.079C20.2866 24.0629 19.3284 22.42 19.3284 22.1475C19.3284 22.0942 19.7533 21.5903 20.2727 21.0274C21.8755 19.2905 21.8739 19.3119 20.6488 15.9773C20.0702 14.4028 19.4528 12.9603 19.2767 12.7717C18.8323 12.296 16.7916 12.2863 16.0175 12.7563Z" fill="#B68535"/>
</svg>
